<?xml version="1.0" encoding="UTF-8"?>
<svg id="Layer_1" data-name="Layer 1" xmlns="http://www.w3.org/2000/svg" viewBox="0 0 203.72 189.29">
  <defs>
    <style>
      .cls-1 {
        fill: none;
      }

      .cls-1, .cls-2, .cls-3 {
        stroke-width: 0px;
      }

      .cls-2 {
        fill: #cfcfce;
      }

      .cls-3 {
        fill: #00aab7;
      }
    </style>
  </defs>
  <g>
    <g>
      <path class="cls-2" d="M130,61.43l.62.51c2.48-3.9,4.44-8.1,5.82-12.56-.38-.75-.78-1.49-1.21-2.22-.41-.69-.85-1.37-1.3-2.03l-.43,1.57c-1.22,4.46-3.05,8.66-5.43,12.55.66.71,1.31,1.44,1.94,2.18Z"/>
      <path class="cls-2" d="M95.81,41.81c2.41-4.24,5.43-8.15,8.98-11.51l1.28-1.21c-.83-.06-1.67-.09-2.51-.1-.07,0-.14,0-.22,0-.81,0-1.61.04-2.41.09-3.54,3.61-6.55,7.75-8.92,12.2,1.28.13,2.54.31,3.8.53Z"/>
      <path class="cls-2" d="M83.92,84.02l-.46-1.2c-4.41-.23-8.77-1.04-12.98-2.45l-1.53-.51c.3.75.62,1.48.96,2.2.37.76.76,1.51,1.18,2.25,4.49,1.32,9.11,2.04,13.79,2.14l-.96-2.44Z"/>
      <path class="cls-2" d="M130.44,70.16c-.59.72-1.19,1.41-1.81,2.1-.14.16-.29.31-.43.46l-.13.14c2.38,3.9,4.21,8.09,5.43,12.56l.43,1.56c.46-.66.89-1.34,1.3-2.04.43-.72.83-1.46,1.21-2.21-1.4-4.5-3.38-8.74-5.9-12.67l-.09.11Z"/>
      <path class="cls-2" d="M83.64,49.28c.37-1.22.78-2.43,1.23-3.63-4.68.1-9.3.82-13.79,2.15-.41.73-.81,1.48-1.17,2.24-.35.72-.67,1.47-.97,2.22l1.53-.51c4.27-1.42,8.68-2.24,13.16-2.46Z"/>
    </g>
    <path class="cls-3" d="M127.01,64.44c-9.04-10.89-21.74-17.64-35.78-19l-1.69-.16-.61,1.59c-2.37,6.14-3.58,12.6-3.58,19.19,0,5.61.88,11.12,2.61,16.43h-.09s1.06,2.76,1.06,2.76l.61,1.59h.05c2.53,5.94,6.16,11.45,10.66,16.13,1.02.08,2.05.14,3.1.14.07,0,.14,0,.22,0,1.04,0,2.07-.07,3.09-.16l-1.55-1.46c-4.55-4.3-8.27-9.51-10.87-15.18.48-.07.96-.17,1.44-.25.29-.05.59-.1.88-.16.81-.16,1.62-.34,2.43-.54.07-.02.14-.04.22-.06.76-.19,1.51-.4,2.25-.62.28-.08.55-.18.83-.27.52-.17,1.05-.33,1.56-.51.32-.11.63-.23.94-.35.47-.18.94-.35,1.4-.54.33-.13.65-.28.97-.42.44-.19.89-.38,1.32-.59.33-.15.65-.31.98-.47.43-.21.85-.42,1.27-.64.32-.17.65-.35.97-.52.41-.23.82-.46,1.22-.69.32-.19.63-.38.95-.57.4-.24.79-.5,1.19-.75.31-.2.62-.41.92-.61.39-.27.77-.54,1.16-.81.3-.22.6-.43.89-.65.38-.29.76-.58,1.13-.88.28-.23.57-.45.85-.68.38-.31.74-.63,1.11-.96.27-.23.54-.47.8-.71.38-.35.74-.7,1.11-1.06.24-.23.49-.46.72-.7.4-.4.79-.82,1.18-1.24.19-.21.39-.41.58-.62.57-.63,1.13-1.28,1.68-1.95l1.17-1.42h0s-1.33-1.61-1.33-1.61ZM122.29,66.28c-.21.24-.43.47-.65.7-.31.33-.62.67-.94.99-.23.24-.47.47-.71.7-.31.31-.63.61-.95.91-.25.23-.5.45-.75.67-.32.29-.65.57-.98.85-.26.21-.51.43-.77.64-.34.27-.68.54-1.03.8-.26.2-.52.4-.79.59-.36.26-.72.51-1.09.77-.26.18-.52.36-.78.53-.4.26-.8.51-1.21.76-.24.15-.47.3-.72.45-.51.3-1.03.59-1.55.88-.14.08-.28.16-.42.24-.66.35-1.34.69-2.02,1.02-.2.1-.41.18-.61.27-.48.22-.97.44-1.46.65-.27.11-.54.21-.81.32-.44.17-.87.34-1.31.5-.29.11-.59.21-.89.31-.42.14-.85.29-1.28.42-.31.1-.62.18-.93.27-.42.12-.85.24-1.28.35-.32.08-.64.16-.95.24-.43.1-.86.2-1.29.29-.32.07-.64.13-.97.19-.44.08-.88.16-1.33.23-.32.05-.64.1-.96.15-.12.02-.25.03-.38.05-1.78-5.13-2.68-10.49-2.68-15.95s.9-10.82,2.68-15.96c11.63,1.54,22.16,7.14,29.98,15.95-.07.08-.13.15-.2.23Z"/>
  </g>
  <g>
    <path class="cls-2" d="M34.58,147.11v13.03h-5.17v-40.57h5.17v2.39c1.96-1.96,4.33-2.94,7.1-2.94,4.14,0,7.36,1.29,9.66,3.86s3.46,6.35,3.46,11.32c0,4.43-1.16,8.04-3.48,10.84-2.32,2.8-5.68,4.2-10.07,4.2-1.23,0-2.55-.22-3.96-.65-1.41-.44-2.31-.93-2.71-1.5ZM34.58,125.86v16.98c.33.49,1.02.96,2.07,1.4,1.05.44,2.08.67,3.07.67,6.42,0,9.63-3.63,9.63-10.88,0-3.68-.76-6.38-2.29-8.08-1.52-1.71-3.96-2.56-7.32-2.56-.73,0-1.61.25-2.67.76-1.05.51-1.89,1.08-2.5,1.71Z"/>
    <path class="cls-2" d="M59.08,140.47v-32.84h5.17v31.97c0,1.56.45,2.79,1.35,3.69.9.9,2.07,1.35,3.52,1.35v4.63c-6.69,0-10.04-2.93-10.04-8.79Z"/>
    <path class="cls-2" d="M97.76,134.65h-21.01c0,3.41.93,6.03,2.8,7.86,1.65,1.6,3.77,2.39,6.37,2.39,2.96,0,5.42-.86,7.4-2.58l2.18,3.73c-.8.8-2.02,1.49-3.67,2.07-2.07.76-4.37,1.14-6.91,1.14-3.66,0-6.77-1.24-9.33-3.73-2.85-2.74-4.27-6.42-4.27-11.05s1.46-8.66,4.38-11.56c2.61-2.59,5.71-3.89,9.28-3.89,4.15,0,7.41,1.17,9.77,3.51,2.29,2.25,3.43,5.23,3.43,8.95,0,1.14-.14,2.19-.41,3.16ZM85.22,123.38c-2.3,0-4.24.74-5.8,2.23-1.49,1.42-2.33,3.17-2.53,5.28h16.13c0-2.09-.65-3.83-1.96-5.22-1.43-1.52-3.38-2.29-5.85-2.29Z"/>
    <path class="cls-2" d="M119.83,148.72l-7.95-10.61-7.1,10.61h-6.04l10.58-14.91-9.71-14.23h5.82l6.53,10.01,7.32-10.01h5.71l-10.58,14.23,11.59,14.91h-6.18Z"/>
    <path class="cls-2" d="M133.93,119.57v18.58c0,4.5,1.95,6.75,5.85,6.75,1.71,0,3.27-.49,4.68-1.47,1.41-.98,2.35-2.11,2.8-3.4v-20.46h5.17v29.14h-5.17v-4.03c-.58,1.14-1.75,2.19-3.5,3.14-1.75.95-3.46,1.43-5.13,1.43-3.19,0-5.64-.92-7.33-2.75-1.7-1.83-2.54-4.44-2.54-7.81v-19.13h5.17Z"/>
    <path class="cls-1" d="M82.43-.06v18.58c0,4.5,1.95,6.75,5.85,6.75,1.71,0,3.27-.49,4.68-1.47,1.41-.98,2.35-2.11,2.8-3.4V-.06h5.17v29.14h-5.17v-4.03c-.58,1.14-1.75,2.19-3.5,3.14-1.75.95-3.46,1.43-5.13,1.43-3.19,0-5.64-.92-7.33-2.75-1.7-1.83-2.54-4.44-2.54-7.81V-.06h5.17Z"/>
    <path class="cls-1" d="M34.58,160.14v18.58c0,4.5,1.95,6.75,5.85,6.75,1.71,0,3.27-.49,4.68-1.47,1.41-.98,2.35-2.11,2.8-3.4v-20.46h5.17v29.14h-5.17v-4.03c-.58,1.14-1.75,2.19-3.5,3.14-1.75.95-3.46,1.43-5.13,1.43-3.19,0-5.64-.92-7.33-2.75-1.7-1.83-2.54-4.44-2.54-7.81v-19.13h5.17Z"/>
    <path class="cls-1" d="M29.41,101.07H10.83c-4.5,0-6.75,1.95-6.75,5.85,0,1.71.49,3.27,1.47,4.68.98,1.41,2.11,2.35,3.4,2.8h20.46v5.17H.27v-5.17h4.03c-1.14-.58-2.19-1.75-3.14-3.5-.95-1.75-1.43-3.46-1.43-5.13,0-3.19.92-5.64,2.75-7.33,1.83-1.7,4.44-2.54,7.81-2.54h19.13v5.17Z"/>
    <path class="cls-1" d="M203.72,102.54h-18.58c-4.5,0-6.75,1.95-6.75,5.85,0,1.71.49,3.27,1.47,4.68.98,1.41,2.11,2.35,3.4,2.8h20.46v5.17h-29.14v-5.17h4.03c-1.14-.58-2.19-1.75-3.14-3.5-.95-1.75-1.43-3.46-1.43-5.13,0-3.19.92-5.64,2.75-7.33,1.83-1.7,4.44-2.54,7.81-2.54h19.13v5.17Z"/>
    <path class="cls-2" d="M156.92,146.97l1.82-4.9c2.88,1.89,5.21,2.83,6.97,2.83,3.19,0,4.79-1.34,4.79-4.03,0-1.92-1.54-3.57-4.63-4.95-2.38-1.09-3.98-1.91-4.8-2.48-.83-.56-1.54-1.2-2.15-1.92-.61-.72-1.06-1.48-1.36-2.29-.3-.81-.45-1.67-.45-2.6,0-2.39.87-4.26,2.61-5.61,1.74-1.34,4.02-2.01,6.83-2.01,2.12,0,4.8.67,8.03,2.01l-1.47,4.79c-2.05-1.63-4.11-2.45-6.18-2.45-1.23,0-2.27.29-3.12.87-.84.58-1.26,1.32-1.26,2.2,0,1.87,1.06,3.28,3.18,4.24l3.7,1.69c2.27,1.03,3.92,2.21,4.95,3.54,1.03,1.32,1.55,2.98,1.55,4.98,0,2.61-.92,4.66-2.75,6.14s-4.37,2.22-7.62,2.22c-3.07,0-5.95-.76-8.65-2.29Z"/>
  </g>
</svg>