<?xml version="1.0" encoding="UTF-8" standalone="no"?>
<!-- Created with Inkscape (http://www.inkscape.org/) -->

<svg
   width="105.83333mm"
   height="105.83334mm"
   viewBox="0 0 105.83333 105.83334"
   version="1.1"
   id="svg1"
   inkscape:version="1.3.2 (091e20ef0f, 2023-11-25, custom)"
   sodipodi:docname="network-green.svg"
   inkscape:export-filename="network-green.svg"
   inkscape:export-xdpi="96"
   inkscape:export-ydpi="96"
   xmlns:inkscape="http://www.inkscape.org/namespaces/inkscape"
   xmlns:sodipodi="http://sodipodi.sourceforge.net/DTD/sodipodi-0.dtd"
   xmlns="http://www.w3.org/2000/svg"
   xmlns:svg="http://www.w3.org/2000/svg">
  <sodipodi:namedview
     id="namedview1"
     pagecolor="#ffffff"
     bordercolor="#000000"
     borderopacity="0.25"
     inkscape:showpageshadow="2"
     inkscape:pageopacity="0.0"
     inkscape:pagecheckerboard="0"
     inkscape:deskcolor="#d1d1d1"
     inkscape:document-units="mm"
     inkscape:zoom="0.37797619"
     inkscape:cx="395.52756"
     inkscape:cy="562.20472"
     inkscape:window-width="956"
     inkscape:window-height="1039"
     inkscape:window-x="0"
     inkscape:window-y="19"
     inkscape:window-maximized="1"
     inkscape:current-layer="layer1"
     inkscape:export-bgcolor="#ffffff67" />
  <defs
     id="defs1" />
  <g
     inkscape:label="Layer 1"
     inkscape:groupmode="layer"
     id="layer1"
     transform="translate(-52.122915,-95.779164)">
    <path
       d="m 52.122915,148.69583 v 52.91667 h 52.916665 52.91667 V 148.69583 95.779166 H 105.03958 52.122915 Z m 61.206945,-48.11889 c 9.59556,1.62278 18.7325,6.27945 25.85861,13.12334 1.94028,1.86972 2.18722,2.25778 2.18722,3.45722 0,2.54 -2.71639,14.25222 -3.4925,15.06361 -0.14111,0.14111 -1.23472,0 -2.43416,-0.28222 -2.64584,-0.70556 -5.36223,-0.3175 -7.76111,1.09361 l -1.55223,0.91722 -4.83305,-2.29305 c -7.54945,-3.63362 -12.91167,-5.25639 -21.413611,-6.59695 -2.36361,-0.38805 -2.54,-0.45861 -3.06917,-1.62278 -0.3175,-0.67027 -1.23472,-1.905 -2.01083,-2.75166 -1.41111,-1.51695 -1.41111,-1.51695 -0.91722,-2.89278 1.37583,-3.95111 5.75027,-11.50056 9.313331,-16.12194 l 1.5875,-2.081394 2.8575,0.246945 c 1.55222,0.141111 4.1275,0.458609 5.67972,0.740829 z m -15.698611,-0.0353 c 0,0.0706 -0.84667,1.55223 -1.905,3.28084 -2.46944,4.09222 -5.22111,9.27805 -6.24417,11.78278 -0.77611,2.04611 -0.81139,2.04611 -2.25777,2.04611 -3.59834,0 -7.16139,2.39889 -8.85473,5.92666 -0.52916,1.09362 -0.98777,2.04612 -1.02305,2.11667 -0.0353,0.0353 -2.08139,0.635 -4.51556,1.30528 -4.37444,1.23472 -9.06639,2.96333 -11.92389,4.40972 -0.77611,0.42333 -1.51694,0.67028 -1.62277,0.56445 -0.28223,-0.28223 1.44638,-4.19806 3.31611,-7.44362 5.96194,-10.37166 15.83972,-18.48555 27.09333,-22.15444 4.1275,-1.37584 7.9375,-2.25778 7.9375,-1.83445 z m 51.011671,26.03501 c 3.84528,7.62 5.22111,13.40555 5.22111,22.29555 0,6.13833 -0.74083,11.46528 -1.55222,11.46528 -0.17639,0 -0.88195,-0.9525 -1.58751,-2.15195 -1.72861,-2.82222 -5.18583,-7.51416 -7.09083,-9.525 l -1.51694,-1.65805 0.52916,-1.65806 c 0.70556,-2.36361 0.635,-5.67972 -0.17639,-7.44361 l -0.67027,-1.44639 1.16416,-3.4925 c 0.635,-1.94027 1.51695,-5.00944 1.94028,-6.84389 1.09361,-4.65666 1.02306,-4.48027 1.44639,-3.88055 0.17639,0.28222 1.23472,2.25778 2.29306,4.33917 z m -44.87334,4.30388 c 5.08,1.02306 10.23056,2.75167 15.41639,5.18584 l 3.73945,1.76389 -0.0353,3.38666 c -0.0353,3.95111 0.28222,4.86834 2.78694,7.72584 0.88194,0.98777 1.5875,1.97555 1.5875,2.2225 0,0.70555 -8.18444,8.50194 -11.46528,10.93611 -3.175,2.36361 -9.13694,6.0325 -10.86555,6.6675 -0.81139,0.3175 -0.98778,0.24694 -1.34056,-0.35278 -0.74083,-1.41111 -2.92805,-3.56306 -4.339161,-4.26861 -0.77611,-0.38806 -2.61056,-0.91722 -4.05695,-1.12889 l -2.64583,-0.42333 -0.9525,-3.59834 c -1.37583,-5.08 -2.04611,-9.45444 -2.32833,-14.39333 -0.24695,-4.93889 0,-6.84389 0.88194,-6.84389 0.3175,0 1.44639,-0.49389 2.46945,-1.05833 1.94027,-1.12889 3.66888,-3.175 4.58611,-5.3975 0.635,-1.5875 0.77611,-1.62278 6.561661,-0.42334 z m -25.717501,0.88195 c 0.42334,1.37583 2.92806,4.09222 4.55084,4.93889 l 1.62277,0.88194 V 140.97 c 0,6.6675 1.16417,14.74611 2.99862,20.6375 0.49388,1.55222 0.88194,2.99861 0.88194,3.24555 0,0.28223 -0.635,1.19945 -1.41111,2.08139 -1.51695,1.72861 -2.46945,4.26861 -2.46945,6.49111 v 1.30528 l -2.36361,0.28222 c -4.86833,0.49389 -16.72166,-0.49388 -18.80305,-1.62277 -1.51695,-0.81139 -4.7625,-8.89 -6.208892,-15.34584 -0.776111,-3.56305 -0.846666,-14.53444 -0.105833,-17.28611 l 0.493885,-1.76389 5.46806,-2.71639 c 5.04472,-2.54 12.31194,-5.15055 14.35806,-5.22111 0.45861,0 0.84666,0.28223 0.98777,0.70556 z m 63.147221,21.59 c 2.78695,3.4925 6.17362,8.67833 7.79639,12.02972 l 1.37584,2.75167 -1.23473,2.36361 c -6.24416,11.92389 -15.875,20.39055 -27.94,24.58861 l -2.75166,0.98778 -2.71639,-2.04611 c -2.78695,-2.08139 -11.81806,-10.86556 -12.94695,-12.59417 -0.59972,-0.91722 -0.56444,-0.98778 0.42334,-2.82222 0.59972,-1.02306 1.23472,-2.43417 1.44639,-3.13972 0.35277,-1.05834 0.74083,-1.41112 2.78694,-2.36362 7.33778,-3.38666 16.68639,-10.58333 22.11917,-17.00388 3.31611,-3.95112 3.10444,-3.77473 4.83305,-4.02167 0.84667,-0.14111 1.905,-0.45861 2.39889,-0.74083 1.65806,-0.9525 2.25778,-0.67028 4.40972,2.01083 z m -66.322221,26.59944 c 2.92806,0.10584 6.63223,0.0353 8.255,-0.14111 l 2.99861,-0.35278 1.41112,1.19945 c 2.46944,2.11667 4.26861,2.78694 7.51416,2.78694 h 2.92806 l 2.434161,2.82223 c 2.36361,2.78694 7.54945,7.9375 9.87778,9.80722 0.635,0.52917 1.05833,1.09361 0.91722,1.23472 -0.14111,0.14112 -3.03389,0.24695 -6.45583,0.24695 -6.843891,-0.0353 -9.666111,-0.45861 -15.416391,-2.36362 -6.84389,-2.29305 -12.87639,-5.99722 -18.415,-11.32416 -3.88055,-3.73945 -4.445,-4.72723 -2.46944,-4.33917 0.59972,0.14111 3.52778,0.3175 6.42055,0.42333 z"
       id="path1-0"
       style="opacity:0.853399;fill:#ff8000;fill-opacity:1;fill-rule:evenodd;stroke:none;stroke-width:0.0352778"
       inkscape:export-filename="network-yellow.svg"
       inkscape:export-xdpi="96"
       inkscape:export-ydpi="96" />
  </g>
</svg>
